<?xml version="1.0" encoding="utf-8"?>
<!-- Generator: Adobe Illustrator 18.1.1, SVG Export Plug-In . SVG Version: 6.00 Build 0)  -->
<svg version="1.1" id="Layer_1" xmlns="http://www.w3.org/2000/svg" xmlns:xlink="http://www.w3.org/1999/xlink" x="0px" y="0px"
	 viewBox="0 0 612 792" enable-background="new 0 0 612 792" xml:space="preserve">
<g>
	<path fill="#6E6E6E" d="M600,225.5c0-51.2-46.2-97.5-97.5-97.5h-390C61.2,128,15,174.3,15,225.5v390c0,51.2,46.2,97.5,97.5,97.5
		h195V492H236v-97.5h71.5v-38c0-65.5,49.2-124.5,109.7-124.5H496v97.5h-78.8c-8.6,0-18.7,10.5-18.7,26.2v38.8H496V492h-97.5v221h104
		c51.3,0,97.5-46.3,97.5-97.5V225.5z M600,225.5"/>
</g>
</svg>
