<?xml version="1.0" encoding="utf-8"?>
<!-- Generator: Adobe Illustrator 18.1.1, SVG Export Plug-In . SVG Version: 6.00 Build 0)  -->
<svg version="1.1" id="Layer_1" xmlns="http://www.w3.org/2000/svg" xmlns:xlink="http://www.w3.org/1999/xlink" x="0px" y="0px"
	 viewBox="0 0 612 792" enable-background="new 0 0 612 792" xml:space="preserve">
<g>
	<path fill="#6E6E6E" d="M573.4,398.3V601H455.8V411.8c0-47.5-17-79.9-59.5-79.9c-32.5,0-51.8,21.8-60.3,43
		c-3.1,7.6-3.9,18.1-3.9,28.7V601H214.5c0,0,1.6-320.4,0-353.6h117.6v50.1c-0.2,0.4-0.6,0.8-0.8,1.2h0.8v-1.2
		c15.6-24,43.5-58.4,105.9-58.4C515.4,239.1,573.4,289.7,573.4,398.3L573.4,398.3z M91.5,77C51.3,77,25,103.4,25,138.1
		c0,33.9,25.6,61.1,65,61.1h0.8c41,0,66.5-27.2,66.5-61.1C156.5,103.4,131.7,77,91.5,77L91.5,77z M32,601h117.5V247.4H32V601z
		 M32,601"/>
</g>
</svg>
